ffmpeg version 3.4.8-0ubuntu0.2 Copyright (c) 2000-2020 the FFmpeg developers
  built with gcc 7 (Ubuntu 7.5.0-3ubuntu1~18.04)
  configuration: --prefix=/usr --extra-version=0ubuntu0.2 --toolchain=hardened --libdir=/usr/lib/x86_64-linux-gnu --incdir=/usr/include/x86_64-linux-gnu --enable-gpl --disable-stripping --enable-avresample --enable-avisynth --enable-gnutls --enable-ladspa --enable-libass --enable-libbluray --enable-libbs2b --enable-libcaca --enable-libcdio --enable-libflite --enable-libfontconfig --enable-libfreetype --enable-libfribidi --enable-libgme --enable-libgsm --enable-libmp3lame --enable-libmysofa --enable-libopenjpeg --enable-libopenmpt --enable-libopus --enable-libpulse --enable-librubberband --enable-librsvg --enable-libshine --enable-libsnappy --enable-libsoxr --enable-libspeex --enable-libssh --enable-libtheora --enable-libtwolame --enable-libvorbis --enable-libvpx --enable-libwavpack --enable-libwebp --enable-libx265 --enable-libxml2 --enable-libxvid --enable-libzmq --enable-libzvbi --enable-omx --enable-openal --enable-opengl --enable-sdl2 --enable-libdc1394 --enable-libdrm --enable-libiec61883 --enable-chromaprint --enable-frei0r --enable-libopencv --enable-libx264 --enable-shared
  libavutil      55. 78.100 / 55. 78.100
  libavcodec     57.107.100 / 57.107.100
  libavformat    57. 83.100 / 57. 83.100
  libavdevice    57. 10.100 / 57. 10.100
  libavfilter     6.107.100 /  6.107.100
  libavresample   3.  7.  0 /  3.  7.  0
  libswscale      4.  8.100 /  4.  8.100
  libswresample   2.  9.100 /  2.  9.100
  libpostproc    54.  7.100 / 54.  7.100
Input #0, mov,mp4,m4a,3gp,3g2,mj2, from '/root/results/2020-11-30_15:09:44/cases/780/test-small_movie-780.mp4':
  Metadata:
    major_brand     : mp42
    minor_version   : 19529854
    compatible_brands: mp-1isom
    creation_time   : 2014-11-14T07:34:24.000000Z
  Duration: 00:00:01.00, start: 0.083333, bitrate: 10 kb/s
    Stream #0:0(eng): Video: h264 (High) (avc1 / 0x31637661), yuv420p(tv, smpte170m), 48x144 [SAR 1:1 DAR 1:3], 3 kb/s, 12 fps, 12 tbr, 12 tbn, 24 tbc (default)
    Metadata:
      creation_time   : 2014-11-14T07:34:24.000000Z
      handler_name    : Video Media Handler
      encoder         : AVC Coding
Stream mapping:
  Stream #0:0 -> #0:0 (h264 (native) -> mpeg4 (native))
Press [q] to stop, [?] for help
[mpeg4 @ 0x555aa450b140] too many threads/slices (10), reducing to 9
Output #0, avi, to '/root/results/2020-11-30_15:09:44/cases/780/output-small_movie-780.avi':
  Metadata:
    major_brand     : mp42
    minor_version   : 19529854
    compatible_brands: mp-1isom
    ISFT            : Lavf57.83.100
    Stream #0:0(eng): Video: mpeg4 (FMP4 / 0x34504D46), yuv420p, 48x144 [SAR 1:1 DAR 1:3], q=2-31, 200 kb/s, 12 fps, 12 tbn, 12 tbc (default)
    Metadata:
      creation_time   : 2014-11-14T07:34:24.000000Z
      handler_name    : Video Media Handler
      encoder         : Lavc57.107.100 mpeg4
    Side data:
      cpb: bitrate max/min/avg: 0/0/200000 buffer size: 0 vbv_delay: -1
frame=   11 fps=0.0 q=2.0 Lsize=       7kB time=00:00:00.91 bitrate=  59.5kbits/s speed= 130x    
video:1kB audio:0kB subtitle:0kB other streams:0kB global headers:0kB muxing overhead: 763.037964%
